<?xml version="1.0" standalone="no"?>
<!DOCTYPE svg PUBLIC "-//W3C//DTD SVG 20010904//EN"
 "http://www.w3.org/TR/2001/REC-SVG-20010904/DTD/svg10.dtd">
<svg version="1.0" xmlns="http://www.w3.org/2000/svg"
 width="1000.000000pt" height="1000.000000pt" viewBox="0 0 1000.000000 1000.000000"
 preserveAspectRatio="xMidYMid meet">
<metadata>
Created by potrace 1.14, written by Peter Selinger 2001-2017
</metadata>
<g transform="translate(0.000000,1000.000000) scale(0.100000,-0.100000)"
fill="#000000" stroke="none">
<path d="M4048 7203 c-3 -5 -5 -36 -7 -70 -2 -53 1 -63 18 -72 14 -8 306 -10
958 -9 l938 3 0 75 0 75 -952 3 c-523 1 -953 -1 -955 -5z"/>
<path d="M1900 4375 l0 -1595 1586 0 c1048 0 1610 4 1657 10 304 45 513 118
726 257 440 285 733 816 719 1303 -3 101 -4 104 -25 103 -13 0 -45 -1 -73 -2
l-50 -1 0 -63 c0 -152 -44 -381 -101 -525 -185 -466 -564 -783 -1069 -895 -94
-20 -115 -21 -1615 -24 -836 -2 -1539 -1 -1562 2 l-43 6 0 1510 0 1509 -75 0
-75 0 0 -1595z"/>
<path d="M4770 5954 c-345 -52 -641 -203 -890 -453 -217 -218 -343 -439 -424
-743 -26 -100 -50 -309 -44 -398 l3 -55 75 0 75 0 6 145 c12 269 92 508 247
739 115 171 305 343 499 452 74 42 230 102 343 132 141 37 184 38 1755 35
l1530 -3 5 -1510 5 -1510 75 0 75 0 0 1590 0 1590 -1620 2 c-1359 1 -1635 -1
-1715 -13z"/>
<path d="M4662 5625 c-144 -67 -255 -276 -255 -481 0 -101 23 -170 78 -232 50
-57 103 -81 178 -82 31 0 57 -2 57 -4 0 -4 -26 -67 -50 -121 -10 -22 -30 -69
-45 -105 -89 -213 -226 -440 -319 -528 -105 -100 -249 -141 -347 -100 -49 21
-107 81 -133 137 -45 99 -21 283 59 441 143 283 405 393 503 210 60 -113 -11
-375 -130 -475 -100 -84 -217 -93 -295 -23 -32 29 -50 12 -21 -19 33 -36 95
-63 149 -63 128 0 269 145 325 336 25 86 24 225 -3 285 -76 170 -264 169 -433
-2 -85 -86 -151 -209 -186 -346 -102 -404 120 -642 448 -481 89 44 235 193
312 317 69 112 163 301 229 464 28 66 55 117 62 117 50 0 275 199 353 312 54
78 113 211 125 281 9 57 9 68 -6 91 -36 54 -118 19 -220 -94 -31 -35 -58 -61
-60 -59 -2 2 -18 34 -34 71 -34 73 -97 142 -149 164 -52 22 -131 18 -192 -11z
m183 -24 c54 -24 111 -90 146 -167 l29 -63 -54 -83 c-48 -75 -140 -239 -191
-343 l-20 -40 -65 0 c-54 0 -72 5 -105 28 -86 58 -142 186 -130 297 19 180
114 329 237 371 67 23 103 23 153 0z m449 -121 c-1 -134 -130 -340 -294 -472
-49 -38 -129 -82 -137 -75 -5 6 4 28 87 202 32 66 64 129 73 140 14 18 15 16
22 -38 4 -31 11 -60 16 -63 12 -7 11 44 -2 104 -10 47 -8 52 19 93 73 108 156
182 197 177 18 -3 20 -10 19 -68z"/>
<path d="M5605 5346 c-83 -36 -188 -194 -375 -561 -69 -137 -151 -279 -216
-375 -57 -86 -104 -159 -104 -163 0 -22 24 3 74 79 32 47 60 84 62 81 3 -3
-12 -38 -34 -79 -22 -40 -76 -144 -121 -230 l-81 -158 38 0 c45 0 53 8 107
100 87 149 140 220 159 218 38 -6 41 -30 16 -131 -26 -110 -22 -159 15 -183
21 -14 27 -14 52 -1 36 20 78 64 144 157 102 141 123 177 106 179 -4 1 -39
-45 -77 -101 -137 -204 -247 -280 -181 -125 30 70 36 129 16 167 -9 17 -15 33
-13 34 2 1 27 13 56 26 77 35 147 114 163 185 10 47 10 57 -5 79 -10 16 -26
26 -40 26 -50 0 -144 -90 -253 -245 -35 -48 -63 -84 -63 -80 0 13 99 206 133
260 18 28 89 118 158 201 216 258 304 391 335 507 19 71 17 104 -6 127 -23 23
-25 23 -65 6z m45 -66 c0 -87 -96 -274 -221 -432 -73 -93 -213 -257 -216 -254
-5 4 73 177 155 346 120 246 211 380 258 380 21 0 24 -4 24 -40z m-300 -788
c0 -71 -93 -193 -157 -205 -31 -6 -63 2 -63 15 0 19 131 178 167 203 42 28 53
25 53 -13z"/>
<path d="M5799 4547 c-47 -46 -199 -264 -199 -286 0 -22 17 -3 86 101 76 114
156 203 176 195 28 -10 6 -66 -97 -252 -64 -116 -95 -206 -95 -277 0 -59 13
-88 41 -88 26 0 110 84 184 185 94 129 94 127 -3 -77 l-61 -128 -169 -167
c-177 -177 -248 -268 -282 -365 -40 -114 -18 -200 45 -184 74 19 228 236 388
550 37 72 66 109 150 196 103 105 253 312 241 332 -4 5 -31 -28 -62 -74 -93
-139 -232 -300 -232 -268 0 7 15 41 34 74 36 66 236 452 272 526 22 44 22 45
2 48 -48 8 -65 -7 -126 -115 -145 -259 -346 -520 -383 -497 -16 10 3 58 82
204 110 204 142 305 119 375 -17 51 -54 49 -111 -8z m-88 -888 c-100 -205
-156 -300 -215 -365 -55 -62 -82 -73 -98 -38 -23 50 34 187 125 299 48 60 260
276 265 271 2 -2 -33 -77 -77 -167z"/>
</g>
</svg>
