<?xml version="1.0" encoding="UTF-8"?>
<svg id="Layer_2" xmlns="http://www.w3.org/2000/svg" width="1080.158" height="1080.158" baseProfile="tiny" version="1.2" viewBox="0 0 1080.158 1080.158">
  <!-- Generator: Adobe Illustrator 29.4.0, SVG Export Plug-In . SVG Version: 2.1.0 Build 152)  -->
  <rect x="403.047" y="222.5" width="274.065" height="24.981" fill="#3d4043"/>
  <rect x="823.953" y="474.592" width="54.015" height="38.273" fill="#3d4043"/>
  <path d="M540.079,397.954h-1.545v.02c-36.892.245-71.75,9.215-102.602,24.962-74.546,38.049-125.712,115.598-125.712,204.876h25.03c0-112.426,91.051-203.973,203.284-204.808v-.068h422.482v204.876h24.981v-229.858h-445.919Z" fill="#3d4043"/>
  <path d="M744.907,627.812h0c0,112.943-91.885,204.828-204.828,204.828-.516,0-1.029-.016-1.545-.02v.068H119.141v-204.877h-24.981v229.858h445.92c37.465,0,72.863-9.014,104.146-24.981,74.546-38.049,125.711-115.598,125.711-204.876h0s-25.03,0-25.03,0Z" fill="#3d4043"/>
  <path d="M485.719,570.338s-46.172-1.697-56.852,43.394h250.865c.461,4.632.704,9.327.704,14.08,0,77.516-62.839,140.356-140.356,140.356-45.225,0-85.331-21.473-110.971-54.703h-34.629c29.378,49.83,83.568,83.286,145.601,83.286,93.302,0,168.939-75.636,168.939-168.939,0-20.189-3.555-39.546-10.05-57.494l-213.248.019Z" fill="#3d4043"/>
  <path d="M593.637,684.736s46.172,1.697,56.852-43.394h-250.865c-.461-4.632-.704-9.327-.704-14.08,0-77.516,62.839-140.356,140.356-140.356,45.225,0,85.331,21.473,110.971,54.703h34.629c-29.378-49.83-83.568-83.286-145.601-83.286-93.302,0-168.939,75.636-168.939,168.939,0,20.189,3.555,39.546,10.05,57.494l213.248-.019Z" fill="#3d4043"/>
  <metadata>
    <sfw xmlns="http://ns.adobe.com/SaveForWeb/1.0/">
      <slices/>
      <sliceSourceBounds x="-7862.68" y="-8585.55" width="16383" height="16388.6" bottomLeftOrigin="true"/>
    </sfw>
  </metadata>
</svg>